<svg xmlns="http://www.w3.org/2000/svg" xmlns:xlink="http://www.w3.org/1999/xlink" width="1080" zoomAndPan="magnify" viewBox="0 0 810 809.999993" height="1080" preserveAspectRatio="xMidYMid meet" version="1.2"><defs/><g id="550aa1ba4d"><g style="fill:#000000;fill-opacity:0.302;"><g transform="translate(0.525574, 636.171667)"><path style="stroke:none" d="M 231.109375 -57.78125 L 231.109375 -115.5625 L 173.34375 -115.5625 L 173.34375 -173.34375 L 115.5625 -173.34375 L 115.5625 -231.109375 L 57.78125 -231.109375 L 57.78125 -288.890625 L 115.5625 -288.890625 L 115.5625 -346.671875 L 173.34375 -346.671875 L 173.34375 -404.453125 L 231.109375 -404.453125 L 231.109375 -462.234375 L 346.671875 -462.234375 L 346.671875 -404.453125 L 288.890625 -404.453125 L 288.890625 -346.671875 L 231.109375 -346.671875 L 231.109375 -288.890625 L 173.34375 -288.890625 L 173.34375 -231.109375 L 231.109375 -231.109375 L 231.109375 -173.34375 L 288.890625 -173.34375 L 288.890625 -115.5625 L 346.671875 -115.5625 L 346.671875 -57.78125 Z M 231.109375 -57.78125 "/></g></g><g style="fill:#000000;fill-opacity:0.302;"><g transform="translate(462.765606, 636.171667)"><path style="stroke:none" d="M 0 -57.78125 L 0 -462.234375 L 288.890625 -462.234375 L 288.890625 -404.453125 L 346.671875 -404.453125 L 346.671875 -346.671875 L 404.453125 -346.671875 L 404.453125 -173.34375 L 346.671875 -173.34375 L 346.671875 -115.5625 L 288.890625 -115.5625 L 288.890625 -57.78125 Z M 115.5625 -115.5625 L 231.109375 -115.5625 L 231.109375 -173.34375 L 288.890625 -173.34375 L 288.890625 -346.671875 L 231.109375 -346.671875 L 231.109375 -404.453125 L 115.5625 -404.453125 Z M 115.5625 -115.5625 "/></g></g><g style="fill:#000000;fill-opacity:0.502;"><g transform="translate(-28.364797, 636.171667)"><path style="stroke:none" d="M 231.109375 -57.78125 L 231.109375 -115.5625 L 173.34375 -115.5625 L 173.34375 -173.34375 L 115.5625 -173.34375 L 115.5625 -231.109375 L 57.78125 -231.109375 L 57.78125 -288.890625 L 115.5625 -288.890625 L 115.5625 -346.671875 L 173.34375 -346.671875 L 173.34375 -404.453125 L 231.109375 -404.453125 L 231.109375 -462.234375 L 346.671875 -462.234375 L 346.671875 -404.453125 L 288.890625 -404.453125 L 288.890625 -346.671875 L 231.109375 -346.671875 L 231.109375 -288.890625 L 173.34375 -288.890625 L 173.34375 -231.109375 L 231.109375 -231.109375 L 231.109375 -173.34375 L 288.890625 -173.34375 L 288.890625 -115.5625 L 346.671875 -115.5625 L 346.671875 -57.78125 Z M 231.109375 -57.78125 "/></g></g><g style="fill:#000000;fill-opacity:0.502;"><g transform="translate(433.875236, 636.171667)"><path style="stroke:none" d="M 0 -57.78125 L 0 -462.234375 L 288.890625 -462.234375 L 288.890625 -404.453125 L 346.671875 -404.453125 L 346.671875 -346.671875 L 404.453125 -346.671875 L 404.453125 -173.34375 L 346.671875 -173.34375 L 346.671875 -115.5625 L 288.890625 -115.5625 L 288.890625 -57.78125 Z M 115.5625 -115.5625 L 231.109375 -115.5625 L 231.109375 -173.34375 L 288.890625 -173.34375 L 288.890625 -346.671875 L 231.109375 -346.671875 L 231.109375 -404.453125 L 115.5625 -404.453125 Z M 115.5625 -115.5625 "/></g></g><g style="fill:#ffffff;fill-opacity:1;"><g transform="translate(-57.25517, 636.171667)"><path style="stroke:none" d="M 231.109375 -57.78125 L 231.109375 -115.5625 L 173.34375 -115.5625 L 173.34375 -173.34375 L 115.5625 -173.34375 L 115.5625 -231.109375 L 57.78125 -231.109375 L 57.78125 -288.890625 L 115.5625 -288.890625 L 115.5625 -346.671875 L 173.34375 -346.671875 L 173.34375 -404.453125 L 231.109375 -404.453125 L 231.109375 -462.234375 L 346.671875 -462.234375 L 346.671875 -404.453125 L 288.890625 -404.453125 L 288.890625 -346.671875 L 231.109375 -346.671875 L 231.109375 -288.890625 L 173.34375 -288.890625 L 173.34375 -231.109375 L 231.109375 -231.109375 L 231.109375 -173.34375 L 288.890625 -173.34375 L 288.890625 -115.5625 L 346.671875 -115.5625 L 346.671875 -57.78125 Z M 231.109375 -57.78125 "/></g></g><g style="fill:#ffffff;fill-opacity:1;"><g transform="translate(404.984863, 636.171667)"><path style="stroke:none" d="M 0 -57.78125 L 0 -462.234375 L 288.890625 -462.234375 L 288.890625 -404.453125 L 346.671875 -404.453125 L 346.671875 -346.671875 L 404.453125 -346.671875 L 404.453125 -173.34375 L 346.671875 -173.34375 L 346.671875 -115.5625 L 288.890625 -115.5625 L 288.890625 -57.78125 Z M 115.5625 -115.5625 L 231.109375 -115.5625 L 231.109375 -173.34375 L 288.890625 -173.34375 L 288.890625 -346.671875 L 231.109375 -346.671875 L 231.109375 -404.453125 L 115.5625 -404.453125 Z M 115.5625 -115.5625 "/></g></g></g></svg>